<svg width="1150" height="647" viewBox="0 0 1150 647" fill="none" xmlns="http://www.w3.org/2000/svg">
<path d="M2 323.5V647H575H1148V323.5V-9.64105e-06H575H2V323.5ZM701 293.5V396H575H449V293.5V191H575H701V293.5ZM400 441V455H397H394V441V427H397H400V441ZM417.1 436.2L420.4 445.5L423.3 436.2L426.1 427H430.6H435V441V455H432H429L428.9 446.2L428.8 437.5L425.8 446.2C423.1 454.3 422.6 455 420.2 455C417.7 455 417.2 454.3 414.5 446.2L411.5 437.5L411.2 446.2L410.9 455H408H405V441V427H409.4H413.8L417.1 436.2ZM458.5 439.7C461.1 446.8 463.5 453.1 463.8 453.7C464.1 454.6 463.1 455 460.7 455C457.6 455 457.1 454.6 456.5 452C455.9 449.1 455.6 449 450.5 449C445.4 449 445.1 449.1 444.5 452C443.9 454.6 443.4 455 440.3 455C437.4 455 436.9 454.7 437.5 453.2C437.9 452.3 439.9 446.9 442 441.3C447.2 427.6 447.6 427 450.9 427C453.6 427 453.9 427.5 458.5 439.7ZM484.3 428.1C487.2 429.6 489.9 433.1 490 435.2C490 436.5 489.2 437 487 437C485.4 437 484 436.6 484 436C484 434.1 479.3 431.9 476.5 432.6C471.3 433.9 469.6 443.5 473.8 448.2C476 450.8 481.5 450.5 483.5 447.7C485 445.6 485 445.5 482 445.2C479.6 444.9 479 444.4 479 442.4C479 440.1 479.3 440 485 440H491V447.5C491 454.8 490.9 455 488.5 455C487.1 455 486 454.5 486 454C486 453.4 484.6 453.7 482.9 454.6C477.2 457.5 469.5 454.7 466.6 448.5C463.4 441.8 465.1 433.4 470.6 429.1C473.6 426.7 480.7 426.2 484.3 428.1ZM516 430V433H509C502.2 433 502 433.1 502 435.5C502 437.9 502.2 438 508.5 438C514.8 438 515 438.1 515 440.5C515 442.9 514.8 443 508.5 443H502V446.5V450H509C515.8 450 516 450.1 516 452.5V455H505.5H495V441V427H505.5H516V430ZM542.1 435.7L547.5 444.5L547.8 435.7L548.1 427H551H554V441V455H550.7C547.8 455 547.1 454.3 542.5 447L537.5 438.9L537 446.7L536.5 454.5L533.3 454.8L530 455.1V441.7C530 434.4 530.3 428 530.7 427.7C531 427.3 532.5 427 534 427C536.3 427 537.5 428.3 542.1 435.7ZM577.9 428.4C586.1 432.7 587.2 446.3 579.9 452.4C573.7 457.6 564.6 456.5 560.3 450.1C558.5 447.5 558 445.3 558 440.7C558 435.1 558.2 434.5 561.9 430.9C565.3 427.5 566.3 427 570.4 427C573 427 576.4 427.7 577.9 428.4ZM609 430C609 432.8 608.8 433 605 433H601V444.1V455.1L597.8 454.8L594.5 454.5L594.2 443.7L593.9 433H590C586.5 433 586 432.7 586 430.7C586 429.4 586.3 428 586.7 427.7C587 427.3 592.2 427 598.2 427H609V430ZM642 430V433H635.5H629V436C629 439 629.1 439 634.5 439C639.7 439 640 439.1 640 441.5C640 443.9 639.7 444 634.5 444H629V449.5V455H625.5H622V441.7C622 434.3 622.3 428 622.7 427.7C623 427.3 627.5 427 632.7 427H642V430ZM665.4 429.1C671.2 433.6 672.9 443.2 669 449.5C664.6 456.7 654 457.9 648.1 451.9C641.6 445.4 643.2 432.3 651.1 428.3C655 426.3 662.3 426.7 665.4 429.1ZM681 436.6C681 447.9 681.8 450 686.3 450C691.4 450 692 448.7 692 437.2V426.9L695.3 427.2L698.5 427.5V438.1C698.4 450.5 697.2 453.3 691.1 455.1C686.1 456.6 680.4 455.5 677.4 452.5C675.1 450.2 675 449.4 675 438.5V427H678H681V436.6ZM714.8 435.7L720.5 444.5L720.8 435.7L721.1 426.9L723.8 427.2L726.5 427.5L726.8 441.2L727.1 455H723.6C720.3 455 719.9 454.5 714.8 446.3L709.5 437.6L709.2 446.3L708.9 455H706H703V441V427H706C708.7 427 709.7 427.9 714.8 435.7ZM748.5 428.4C755.1 431.2 757.9 440.4 754.6 448.5C752.5 453.4 748.6 455 739 455H731V441.7C731 434.3 731.3 428 731.7 427.7C732.9 426.4 745 427 748.5 428.4Z" fill="#637196"/>
<path d="M465.5 208.2C465.2 208.9 465.1 247.7 465.2 294.5L465.5 379.5H575H684.5V293.5V207.5L575.2 207.2C488.3 207 465.8 207.2 465.5 208.2ZM655.5 224.9C663.8 228.8 669.1 237.2 669.1 246.4C669.1 253.5 666.6 259.3 661.4 263.8C654 270.4 644.3 271.8 635.5 267.6C629.5 264.8 626.8 262 624.1 256C618.9 244.6 624.3 230 635.4 224.9C640.8 222.4 650.2 222.5 655.5 224.9ZM559.4 277.6C579.3 302.4 590.8 315.9 591.6 315.6C592.4 315.3 599.3 310.3 607 304.5C614.8 298.6 621.5 294 622.1 294.2C622.6 294.4 633.4 310 646 329L669 363.5L575.3 363.8C523.8 363.9 481.5 363.8 481.2 363.6C480.7 363 527.2 239 528 239C528.3 239 542.5 256.3 559.4 277.6Z" fill="#637196"/>
<path d="M449.2 438.7C447.6 444 447.6 444 450.5 444C453.3 444 453.4 443.1 451.6 438.1L450.4 434.7L449.2 438.7Z" fill="#637196"/>
<path d="M567 433.8C563.7 436.5 563.1 443.7 566 447.2C570.6 453.1 578 449.6 578 441.5C578 433.8 572.1 429.7 567 433.8Z" fill="#637196"/>
<path d="M654.2 433.2C650.7 434.9 649.4 441.2 651.7 445.8C653.2 448.8 654.1 449.6 656.8 449.8C660.8 450.2 663.6 448.1 664.5 443.9C665.4 439.7 663.3 434.1 660.3 432.9C657.4 431.8 657.1 431.8 654.2 433.2Z" fill="#637196"/>
<path d="M738 441.6V450.3L742.1 449.7C747.7 449 749.3 447.1 749.3 441.6C749.3 435.6 747 433 741.8 433H738V441.6Z" fill="#637196"/>
</svg>
