<svg width="100%" height="100%" viewBox="0 0 100 100" fill="none" xmlns="http://www.w3.org/2000/svg">
<path d="M93.6999 79.7L77.0999 63.1C74.9999 61 71.7999 60.9 69.4999 62.5L63.5999 56.6C73.8999 42.9 72.8999 23.3 60.3999 10.8C46.6999 -2.89998 24.4999 -2.89998 10.7999 10.8C-2.9001 24.5 -2.9001 46.7 10.7999 60.4C23.2999 72.9 42.8999 73.9 56.5999 63.6L62.4999 69.5C60.8999 71.9 61.0999 75 63.0999 77.1L79.6999 93.7C82.0999 96.1 85.8999 96.1 88.2999 93.7L93.6999 88.3C96.0999 86 96.0999 82.1 93.6999 79.7ZM17.6999 53.4C7.8999 43.6 7.8999 27.6 17.6999 17.8C27.4999 8.00002 43.4999 8.00002 53.2999 17.8C63.0999 27.6 63.0999 43.6 53.2999 53.4C43.4999 63.2 27.5999 63.2 17.6999 53.4Z" fill="#637196"/>
<path d="M46.3 24.9001C44.7 23.3001 42.1 23.3001 40.5 24.9001L35.5999 29.8001L30.7 24.9001C29.1 23.3001 26.5 23.3001 24.9 24.9001C23.3 26.5001 23.3 29.1001 24.9 30.7001L29.8 35.6001L24.9 40.5001C23.3 42.1001 23.3 44.7001 24.9 46.3001C25.7 47.1001 26.7 47.5001 27.8 47.5001C28.9 47.5001 29.9 47.1001 30.7 46.3001L35.5999 41.4001L40.5 46.3001C41.3 47.1001 42.4 47.5001 43.4 47.5001C44.4 47.5001 45.5 47.1001 46.3 46.3001C47.9 44.7001 47.9 42.1001 46.3 40.5001L41.4 35.6001L46.3 30.7001C47.9 29.1001 47.9 26.5001 46.3 24.9001Z" fill="#637196"/>
</svg>
